[img]http://img163.imageshack.us/img163/2515/altitudemovieposter.jpg[/img]

Genre : Horror / Sc-Fi / Thriller

Plot : After a mysterious malfunction sends their small plane climbing out of control, a rookie pilot and her four teenage friends find themselves trapped in a deadly showdown with a supernatural force.


Altitude.2010.DVDrip.XviD

General

Complete name: Altitude.avi
Format: AVI
Format/Info: Audio Video Interleave
File size: 705 MiB
Duration: 1h 30mn
Overall bit rate: 1 093 Kbps
Writing application: VirtualDubMod 1.5.4.1 (build 2178/release)
Writing library: VirtualDubMod build 2178/release

Video

ID: 0
Format: MPEG-4 Visual
Format profile: Advanced Simple@L5
Format settings, BVOP: Yes
Format settings, QPel: No
Format settings, GMC: No warppoints
Format settings, Matrix: Custom
Codec ID: XVID
Codec ID/Hint: XviD
Duration: 1h 30mn
Bit rate: 895 Kbps
Width: 688 pixels
Height: 288 pixels
Display aspect ratio: 2.35:1
Frame rate: 23.976 fps
Color space: YUV
Chroma subsampling: 4:2:0
Bit depth: 8 bits
Scan type: Progressive
Bits/(Pixel*Frame): 0.188
Stream size: 577 MiB (82%)
Writing library: XviD 1.2.1 (UTC 2008-12-04)

Audio

ID: 1
Format: AC-3
Format/Info: Audio Coding 3
Mode extension: CM (complete main)
Codec ID: 2000
Duration: 1h 30mn
Bit rate mode: Constant
Bit rate: 192 Kbps
Channel(s): 2 channels
Channel positions: Front: L R
Sampling rate: 48.0 KHz
Bit depth: 16 bits
Stream size: 124 MiB (18%)
Alignment: Split accross interleaves
Interleave, duration: 96 ms (2.30 video frames)
Interleave, preload duration: 96 ms
Language: English
Subtitle: English.srt (SDH)
Altitude Rar(s): 49x15MB
Altitude Sub Rar(s): 1x15MB
 
http://www.imdb.com/title/tt1407049/


[img]http://img188.imageshack.us/img188/9043/67345190.png[/img]
[img]http://img580.imageshack.us/img580/1972/43342925.png[/img]
[img]http://img812.imageshack.us/img812/7214/67157628.png[/img]